<?xml version="1.0" encoding="UTF-8" standalone="no"?>
<!DOCTYPE svg PUBLIC "-//W3C//DTD SVG 1.1//EN" "http://www.w3.org/Graphics/SVG/1.1/DTD/svg11.dtd">
<svg width="100%"
    height="100%"
    viewBox="0 0 1888 1888"
    version="1.1"
    xmlns="http://www.w3.org/2000/svg"
    xmlns:xlink="http://www.w3.org/1999/xlink"
    xml:space="preserve"
    xmlns:serif="http://www.serif.com/"
    style="fill-rule:evenodd;clip-rule:evenodd;stroke-linejoin:round;stroke-miterlimit:2;">
  
    <g>
        <!-- First rectangular shape -->
        <path 
            id="panel-1"
            d="M44.251,1344.106l543.239,5.562l11.765,-787.821l-555.005,25.746l0,756.514Zm554.396,17l-565.721,-5.788l-0,-778.539l577.831,-26.803l-12.109,811.13Z" 
            style="fill:#221e1f;fill-rule:nonzero;"/>

        <!-- Second rectangular shape -->
        <path
            id="panel-2"
            d="M636.532,1350.171l681.497,6.971l-22.826,-827.581l-646.867,30.007l-11.803,790.602Zm693.145,18.414l-5.885,-0.059l-698.752,-7.152l12.13,-812.627l669.035,-31.035l0.159,5.767l23.313,845.105Z"
            style="fill:#221e1f;fill-rule:nonzero;"/>

        <!-- Third rectangular shape -->
        <path 
            id="panel-3"
            d="M1367.104,1357.645l476.141,4.87l0,-858.38l-499.047,23.153l22.906,830.357Zm487.466,16.308l-498.485,-5.092l-0.151,-5.453l-23.363,-846.917l521.999,-24.219l0,881.681Z" 
            style="fill:#221e1f;fill-rule:nonzero;"/>

        <!-- Fourth rectangular shape -->
        <path
            id="panel-4"
            d="M44.251,1842.791l738.814,0l-31.92,-442.434l-706.894,-7.231l0,449.665Zm750.99,11.325l-762.315,0l-0,-472.433l728.764,7.458l33.551,464.975Z"
            style="fill:#221e1f;fill-rule:nonzero;"/>


        <!-- Fifth rectangular shape -->
        <path
            id="panel-5"
            d="M832.237,1842.791l1011.008,0l0,-431.264l-1042.898,-10.666l31.89,441.931Zm1022.333,11.325l-1032.873,0l-33.53,-464.707l1066.404,10.91l0,453.797Z"
            style="fill:#221e1f;fill-rule:nonzero;"/>

    </g>
</svg>